<svg width="347" height="102" viewBox="0 0 347 102" fill="none" xmlns="http://www.w3.org/2000/svg">
<g filter="url(#filter0_d_203_191)">
<rect x="16" y="8" width="315" height="70" rx="28" fill="url(#paint0_linear_203_191)"/>
</g>
<mask id="mask0_203_191" style="mask-type:alpha" maskUnits="userSpaceOnUse" x="16" y="8" width="315" height="70">
<rect x="16" y="8" width="315" height="70" rx="28" fill="url(#paint1_linear_203_191)"/>
</mask>
<g mask="url(#mask0_203_191)">
<path d="M377.68 -61.2983C393.752 -25.9371 377.297 15.3963 340.925 31.0222C304.553 46.6482 262.039 30.6495 245.967 -4.71177C229.894 -40.0731 246.35 -81.4064 282.722 -97.0323C319.093 -112.658 361.608 -96.6596 377.68 -61.2983Z" fill="url(#paint2_linear_203_191)"/>
<path d="M302.912 28.1591C274.794 0.822368 274.794 -43.4992 302.912 -70.8359C331.029 -98.1726 376.617 -98.1726 404.735 -70.8359C432.853 -43.4992 432.853 0.822368 404.735 28.1591C376.617 55.4958 331.029 55.4958 302.912 28.1591Z" fill="url(#paint3_linear_203_191)"/>
</g>
<defs>
<filter id="filter0_d_203_191" x="0" y="0" width="347" height="102" filterUnits="userSpaceOnUse" color-interpolation-filters="sRGB">
<feFlood flood-opacity="0" result="BackgroundImageFix"/>
<feColorMatrix in="SourceAlpha" type="matrix" values="0 0 0 0 0 0 0 0 0 0 0 0 0 0 0 0 0 0 127 0" result="hardAlpha"/>
<feOffset dy="8"/>
<feGaussianBlur stdDeviation="8"/>
<feComposite in2="hardAlpha" operator="out"/>
<feColorMatrix type="matrix" values="0 0 0 0 0.105882 0 0 0 0 0.223529 0 0 0 0 1 0 0 0 0.2 0"/>
<feBlend mode="normal" in2="BackgroundImageFix" result="effect1_dropShadow_203_191"/>
<feBlend mode="normal" in="SourceGraphic" in2="effect1_dropShadow_203_191" result="shape"/>
</filter>
<linearGradient id="paint0_linear_203_191" x1="49" y1="-19.7083" x2="241.051" y2="112.657" gradientUnits="userSpaceOnUse">
<stop stop-color="#4960F9"/>
<stop offset="1" stop-color="#1433FF"/>
</linearGradient>
<linearGradient id="paint1_linear_203_191" x1="49" y1="-19.7083" x2="241.051" y2="112.657" gradientUnits="userSpaceOnUse">
<stop stop-color="#4960F9"/>
<stop offset="1" stop-color="#1433FF"/>
</linearGradient>
<linearGradient id="paint2_linear_203_191" x1="208.859" y1="-73.5612" x2="375.18" y2="1.03224" gradientUnits="userSpaceOnUse">
<stop stop-color="#5264F9"/>
<stop offset="1" stop-color="#3AF9EF"/>
</linearGradient>
<linearGradient id="paint3_linear_203_191" x1="373.452" y1="103.57" x2="400.26" y2="-203.392" gradientUnits="userSpaceOnUse">
<stop stop-color="#C72FF8"/>
<stop offset="1" stop-color="#C630F8" stop-opacity="0.24"/>
</linearGradient>
</defs>
</svg>
