<svg width="800" height="837" viewBox="0 0 800 837" fill="none" xmlns="http://www.w3.org/2000/svg">
<mask id="mask0_204_302" style="mask-type:alpha" maskUnits="userSpaceOnUse" x="-1" y="-2" width="601" height="701">
<rect x="-0.836853" y="-1.28873" width="600" height="700" fill="white"/>
</mask>
<g mask="url(#mask0_204_302)">
<path d="M420.373 98.9079C357.514 217.129 210.72 262.008 92.4997 199.149C-25.7209 136.29 -70.6003 -10.5041 -7.74131 -128.725C55.1177 -246.945 201.912 -291.825 320.132 -228.966C438.353 -166.107 483.232 -19.3127 420.373 98.9079Z" fill="url(#paint0_linear_204_302)"/>
<path d="M334.385 134.654C271.526 252.874 124.732 297.754 6.51166 234.895C-111.709 172.036 -156.588 25.2418 -93.7294 -92.9788C-30.8704 -211.199 115.924 -256.079 234.144 -193.22C352.365 -130.361 397.244 16.4333 334.385 134.654Z" fill="url(#paint1_linear_204_302)"/>
<path d="M329.094 59.4013C266.235 177.622 119.441 222.501 1.22046 159.642C-117 96.7833 -161.88 -50.0107 -99.0206 -168.231C-36.1616 -286.452 110.632 -331.331 228.853 -268.472C347.074 -205.613 391.953 -58.8193 329.094 59.4013Z" fill="url(#paint2_linear_204_302)"/>
</g>
<mask id="path-5-inside-1_204_302" fill="white">
<path fill-rule="evenodd" clip-rule="evenodd" d="M100.663 114.968C134.629 114.968 162.163 97.8976 162.163 76.8398C162.163 55.782 134.629 38.7113 100.663 38.7113C66.6976 38.7113 39.1631 55.782 39.1631 76.8398C39.1631 84.3476 42.6631 91.3485 48.7068 97.2497C50.2043 98.7119 50.83 100.891 50.1308 102.863L44.5422 118.632C43.1117 122.668 47.0857 126.517 51.0743 124.959L80.1151 113.614C81.0107 113.264 81.9873 113.184 82.9325 113.36C88.5468 114.406 94.4991 114.968 100.663 114.968Z"/>
</mask>
<path d="M80.1151 113.614L76.1124 103.368L80.1151 113.614ZM82.9325 113.36L80.9174 124.174L82.9325 113.36ZM44.5422 118.632L34.1741 114.957L44.5422 118.632ZM51.0743 124.959L47.0717 114.713L51.0743 124.959ZM50.1308 102.863L39.7627 99.1886L50.1308 102.863ZM151.163 76.8398C151.163 82.1642 147.647 88.6903 138.354 94.4517C129.228 100.11 115.93 103.968 100.663 103.968L100.663 125.968C119.361 125.968 136.814 121.292 149.946 113.15C162.912 105.111 173.163 92.5732 173.163 76.8398L151.163 76.8398ZM100.663 49.7113C115.93 49.7113 129.228 53.57 138.354 59.2279C147.647 64.9892 151.163 71.5154 151.163 76.8398L173.163 76.8398C173.163 61.1064 162.912 48.5683 149.946 40.5298C136.814 32.388 119.361 27.7113 100.663 27.7113L100.663 49.7113ZM50.1631 76.8398C50.1631 71.5154 53.6794 64.9892 62.9722 59.2279C72.0983 53.57 85.3958 49.7113 100.663 49.7113L100.663 27.7113C81.9649 27.7113 64.5124 32.388 51.3798 40.5298C38.414 48.5683 28.1631 61.1064 28.1631 76.8398L50.1631 76.8398ZM56.3917 89.3793C51.9221 85.0152 50.1631 80.7001 50.1631 76.8398L28.1631 76.8398C28.1631 87.995 33.4041 97.6819 41.022 105.12L56.3917 89.3793ZM54.9102 122.306L60.4989 106.538L39.7627 99.1886L34.1741 114.957L54.9102 122.306ZM76.1124 103.368L47.0717 114.713L55.0769 135.205L84.1177 123.86L76.1124 103.368ZM100.663 103.968C95.1645 103.968 89.8871 103.466 84.9477 102.546L80.9174 124.174C87.2066 125.346 93.8337 125.968 100.663 125.968L100.663 103.968ZM84.1177 123.86C83.0153 124.291 81.9007 124.357 80.9174 124.174L84.9477 102.546C82.0739 102.01 79.006 102.238 76.1124 103.368L84.1177 123.86ZM34.1741 114.957C29.5965 127.872 42.3134 140.191 55.0769 135.205L47.0717 114.713C51.858 112.843 56.6268 117.463 54.9102 122.306L34.1741 114.957ZM41.022 105.12C39.8184 103.945 38.8652 101.721 39.7627 99.1886L60.4989 106.538C62.7948 100.06 60.5903 93.479 56.3917 89.3793L41.022 105.12Z" fill="white" mask="url(#path-5-inside-1_204_302)"/>
<path d="M76.5391 88.9033C74.3204 88.9033 72.3151 88.4126 70.5231 87.4313C68.7524 86.45 67.3551 85.0953 66.3311 83.3673C65.3284 81.618 64.8271 79.666 64.8271 77.5113C64.8271 75.3566 65.3284 73.4153 66.3311 71.6873C67.3551 69.938 68.7631 68.5726 70.5551 67.5913C72.3471 66.61 74.3524 66.1193 76.5711 66.1193C78.2351 66.1193 79.7711 66.3966 81.1791 66.9513C82.5871 67.506 83.7818 68.3166 84.7631 69.3833L83.2591 70.8873C81.5098 69.1166 79.3018 68.2313 76.6351 68.2313C74.8644 68.2313 73.2538 68.6366 71.8031 69.4473C70.3524 70.258 69.2111 71.3673 68.3791 72.7753C67.5684 74.1833 67.1631 75.762 67.1631 77.5113C67.1631 79.2606 67.5684 80.8393 68.3791 82.2473C69.2111 83.6553 70.3524 84.7646 71.8031 85.5753C73.2538 86.386 74.8644 86.7913 76.6351 86.7913C79.3231 86.7913 81.5311 85.8953 83.2591 84.1033L84.7631 85.6073C83.7818 86.674 82.5764 87.4953 81.1471 88.0713C79.7391 88.626 78.2031 88.9033 76.5391 88.9033ZM96.3071 71.7513C98.4191 71.7513 100.094 72.37 101.331 73.6073C102.59 74.8233 103.219 76.6046 103.219 78.9513L103.219 88.7113L100.947 88.7113L100.947 79.1753C100.947 77.426 100.51 76.0926 99.6351 75.1753C98.7604 74.258 97.5124 73.7993 95.8911 73.7993C94.0778 73.7993 92.6378 74.3433 91.5711 75.4313C90.5258 76.498 90.0031 77.9806 90.0031 79.8793L90.0031 88.7113L87.7311 88.7113L87.7311 64.9673L90.0031 64.9673L90.0031 74.8233C90.6218 73.842 91.4751 73.0846 92.5631 72.5513C93.6511 72.018 94.8991 71.7513 96.3071 71.7513ZM113.675 71.7513C115.873 71.7513 117.558 72.306 118.731 73.4153C119.905 74.5033 120.491 76.1246 120.491 78.2793L120.491 88.7113L118.315 88.7113L118.315 86.0873C117.803 86.962 117.046 87.6446 116.043 88.1353C115.062 88.626 113.889 88.8713 112.523 88.8713C110.646 88.8713 109.153 88.4233 108.043 87.5273C106.934 86.6313 106.379 85.4473 106.379 83.9753C106.379 82.546 106.891 81.394 107.915 80.5193C108.961 79.6446 110.614 79.2073 112.875 79.2073L118.219 79.2073L118.219 78.1833C118.219 76.7326 117.814 75.634 117.003 74.8873C116.193 74.1193 115.009 73.7353 113.451 73.7353C112.385 73.7353 111.361 73.9166 110.379 74.2793C109.398 74.6206 108.555 75.1006 107.851 75.7193L106.827 74.0233C107.681 73.298 108.705 72.7433 109.899 72.3593C111.094 71.954 112.353 71.7513 113.675 71.7513ZM112.875 87.0793C114.155 87.0793 115.254 86.7913 116.171 86.2153C117.089 85.618 117.771 84.7646 118.219 83.6553L118.219 80.9033L112.939 80.9033C110.059 80.9033 108.619 81.906 108.619 83.9113C108.619 84.8926 108.993 85.6713 109.739 86.2473C110.486 86.802 111.531 87.0793 112.875 87.0793ZM133.926 87.6873C133.5 88.0713 132.966 88.37 132.326 88.5833C131.708 88.7753 131.057 88.8713 130.374 88.8713C128.796 88.8713 127.58 88.4446 126.726 87.5913C125.873 86.738 125.446 85.5326 125.446 83.9753L125.446 73.7993L122.438 73.7993L122.438 71.8793L125.446 71.8793L125.446 68.1993L127.718 68.1993L127.718 71.8793L132.838 71.8793L132.838 73.7993L127.718 73.7993L127.718 83.8473C127.718 84.85 127.964 85.618 128.454 86.1513C128.966 86.6633 129.692 86.9193 130.63 86.9193C131.1 86.9193 131.548 86.8446 131.974 86.6953C132.422 86.546 132.806 86.3326 133.126 86.0553L133.926 87.6873Z" fill="white"/>
<path d="M175.507 75.1753C176.04 74.0446 176.83 73.1913 177.875 72.6153C178.942 72.0393 180.254 71.7513 181.811 71.7513L181.811 73.9593L181.267 73.9273C179.496 73.9273 178.11 74.4713 177.107 75.5593C176.104 76.6473 175.603 78.1726 175.603 80.1353L175.603 88.7113L173.331 88.7113L173.331 71.8793L175.507 71.8793L175.507 75.1753ZM191.049 88.8713C189.427 88.8713 187.966 88.5086 186.665 87.7833C185.363 87.0366 184.339 86.0126 183.593 84.7113C182.846 83.41 182.473 81.938 182.473 80.2953C182.473 78.6526 182.846 77.1806 183.593 75.8793C184.339 74.578 185.363 73.5646 186.665 72.8393C187.966 72.114 189.427 71.7513 191.049 71.7513C192.67 71.7513 194.131 72.114 195.433 72.8393C196.734 73.5646 197.747 74.578 198.473 75.8793C199.219 77.1806 199.593 78.6526 199.593 80.2953C199.593 81.938 199.219 83.41 198.473 84.7113C197.747 86.0126 196.734 87.0366 195.433 87.7833C194.131 88.5086 192.67 88.8713 191.049 88.8713ZM191.049 86.8553C192.243 86.8553 193.31 86.5886 194.249 86.0553C195.209 85.5006 195.955 84.722 196.489 83.7193C197.022 82.7166 197.289 81.5753 197.289 80.2953C197.289 79.0153 197.022 77.874 196.489 76.8713C195.955 75.8686 195.209 75.1006 194.249 74.5673C193.31 74.0126 192.243 73.7353 191.049 73.7353C189.854 73.7353 188.777 74.0126 187.817 74.5673C186.878 75.1006 186.131 75.8686 185.577 76.8713C185.043 77.874 184.777 79.0153 184.777 80.2953C184.777 81.5753 185.043 82.7166 185.577 83.7193C186.131 84.722 186.878 85.5006 187.817 86.0553C188.777 86.5886 189.854 86.8553 191.049 86.8553ZM209.511 88.8713C207.89 88.8713 206.428 88.5086 205.127 87.7833C203.826 87.0366 202.802 86.0126 202.055 84.7113C201.308 83.41 200.935 81.938 200.935 80.2953C200.935 78.6526 201.308 77.1806 202.055 75.8793C202.802 74.578 203.826 73.5646 205.127 72.8393C206.428 72.114 207.89 71.7513 209.511 71.7513C211.132 71.7513 212.594 72.114 213.895 72.8393C215.196 73.5646 216.21 74.578 216.935 75.8793C217.682 77.1806 218.055 78.6526 218.055 80.2953C218.055 81.938 217.682 83.41 216.935 84.7113C216.21 86.0126 215.196 87.0366 213.895 87.7833C212.594 88.5086 211.132 88.8713 209.511 88.8713ZM209.511 86.8553C210.706 86.8553 211.772 86.5886 212.711 86.0553C213.671 85.5006 214.418 84.722 214.951 83.7193C215.484 82.7166 215.751 81.5753 215.751 80.2953C215.751 79.0153 215.484 77.874 214.951 76.8713C214.418 75.8686 213.671 75.1006 212.711 74.5673C211.772 74.0126 210.706 73.7353 209.511 73.7353C208.316 73.7353 207.239 74.0126 206.279 74.5673C205.34 75.1006 204.594 75.8686 204.039 76.8713C203.506 77.874 203.239 79.0153 203.239 80.2953C203.239 81.5753 203.506 82.7166 204.039 83.7193C204.594 84.722 205.34 85.5006 206.279 86.0553C207.239 86.5886 208.316 86.8553 209.511 86.8553ZM242.086 71.7513C244.198 71.7513 245.851 72.3593 247.046 73.5753C248.262 74.7913 248.87 76.5833 248.87 78.9513L248.87 88.7113L246.598 88.7113L246.598 79.1753C246.598 77.426 246.171 76.0926 245.318 75.1753C244.486 74.258 243.302 73.7993 241.766 73.7993C240.016 73.7993 238.64 74.3433 237.638 75.4313C236.635 76.498 236.134 77.9806 236.134 79.8793L236.134 88.7113L233.862 88.7113L233.862 79.1753C233.862 77.426 233.435 76.0926 232.582 75.1753C231.75 74.258 230.555 73.7993 228.998 73.7993C227.27 73.7993 225.894 74.3433 224.87 75.4313C223.867 76.498 223.366 77.9806 223.366 79.8793L223.366 88.7113L221.094 88.7113L221.094 71.8793L223.27 71.8793L223.27 74.9513C223.867 73.9273 224.699 73.138 225.766 72.5833C226.832 72.0286 228.059 71.7513 229.446 71.7513C230.854 71.7513 232.07 72.05 233.094 72.6473C234.139 73.2446 234.918 74.13 235.43 75.3033C236.048 74.194 236.934 73.33 238.086 72.7113C239.259 72.0713 240.592 71.7513 242.086 71.7513ZM257.943 88.8713C256.578 88.8713 255.266 88.6793 254.007 88.2953C252.77 87.89 251.799 87.3886 251.095 86.7913L252.119 84.9993C252.823 85.554 253.708 86.0126 254.775 86.3753C255.842 86.7166 256.951 86.8873 258.103 86.8873C259.639 86.8873 260.77 86.6526 261.495 86.1833C262.242 85.6926 262.615 85.01 262.615 84.1353C262.615 83.5166 262.412 83.0366 262.007 82.6953C261.602 82.3326 261.09 82.066 260.471 81.8953C259.852 81.7033 259.031 81.522 258.007 81.3513C256.642 81.0953 255.543 80.8393 254.711 80.5833C253.879 80.306 253.164 79.8473 252.567 79.2073C251.991 78.5673 251.703 77.682 251.703 76.5513C251.703 75.1433 252.29 73.9913 253.463 73.0953C254.636 72.1993 256.268 71.7513 258.359 71.7513C259.447 71.7513 260.535 71.9006 261.623 72.1993C262.711 72.4766 263.607 72.85 264.311 73.3193L263.319 75.1433C261.932 74.1833 260.279 73.7033 258.359 73.7033C256.908 73.7033 255.81 73.9593 255.063 74.4713C254.338 74.9833 253.975 75.6553 253.975 76.4873C253.975 77.1273 254.178 77.6393 254.583 78.0233C255.01 78.4073 255.532 78.6953 256.151 78.8873C256.77 79.058 257.623 79.2393 258.711 79.4313C260.055 79.6873 261.132 79.9433 261.943 80.1993C262.754 80.4553 263.447 80.8926 264.023 81.5113C264.599 82.13 264.887 82.9833 264.887 84.0713C264.887 85.5433 264.268 86.7166 263.031 87.5913C261.815 88.4446 260.119 88.8713 257.943 88.8713Z" fill="white"/>
<defs>
<linearGradient id="paint0_linear_204_302" x1="647.952" y1="-179.467" x2="-396.178" y2="39.9399" gradientUnits="userSpaceOnUse">
<stop stop-color="#C72FF8"/>
<stop offset="1" stop-color="#C630F8" stop-opacity="0.24"/>
</linearGradient>
<linearGradient id="paint1_linear_204_302" x1="9.24171" y1="-329.184" x2="195.025" y2="396.753" gradientUnits="userSpaceOnUse">
<stop stop-color="#C630F8" stop-opacity="0.24"/>
<stop offset="0.99907" stop-color="#2F56F8"/>
</linearGradient>
<linearGradient id="paint2_linear_204_302" x1="11.2717" y1="-413.804" x2="166.709" y2="182.891" gradientUnits="userSpaceOnUse">
<stop stop-color="#5264F9"/>
<stop offset="1" stop-color="#3AF9EF"/>
</linearGradient>
</defs>
</svg>
