<svg width="23" height="12" viewBox="0 0 23 12" fill="none" xmlns="http://www.w3.org/2000/svg">
<g clip-path="url(#clip0_204_347)">
<path d="M11.7029 0.25296C7.44395 0.25296 3.58172 2.25779 0.731789 5.51416C0.499234 5.78095 0.499234 6.15367 0.731789 6.42046C3.58172 9.68076 7.44395 11.6856 11.7029 11.6856C15.9618 11.6856 19.8241 9.68076 22.674 6.42438C22.9065 6.15759 22.9065 5.78488 22.674 5.51809C19.8241 2.25779 15.9618 0.25296 11.7029 0.25296ZM12.0084 9.99462C9.18127 10.1476 6.84662 8.1428 7.02446 5.70641C7.17037 3.69766 9.06271 2.06947 11.3974 1.94392C14.2245 1.79091 16.5591 3.79574 16.3813 6.23214C16.2308 8.23697 14.3385 9.86515 12.0084 9.99462ZM11.8671 8.13496C10.3441 8.21735 9.0855 7.13843 9.18582 5.82803C9.26334 4.74519 10.2848 3.87028 11.5433 3.79966C13.0663 3.71727 14.3248 4.79619 14.2245 6.10659C14.1424 7.19335 13.121 8.06826 11.8671 8.13496Z" fill="#292929"/>
</g>
<defs>
<clipPath id="clip0_204_347">
<rect width="22.291" height="11.4326" fill="white" transform="translate(0.557373 0.25296)"/>
</clipPath>
</defs>
</svg>
