<svg width="22" height="17" viewBox="0 0 22 17" fill="none" xmlns="http://www.w3.org/2000/svg">
<path d="M11 3.03613C6.79667 3.03613 2.98486 5.14046 0.172139 8.55844C-0.0573796 8.83847 -0.0573796 9.22968 0.172139 9.50971C2.98486 12.9318 6.79667 15.0361 11 15.0361C15.2033 15.0361 19.0151 12.9318 21.8279 9.51383C22.0574 9.2338 22.0574 8.84258 21.8279 8.56256C19.0151 5.14046 15.2033 3.03613 11 3.03613ZM11.3015 13.2613C8.5113 13.4219 6.20712 11.3175 6.38263 8.76022C6.52664 6.65178 8.39429 4.94279 10.6985 4.81101C13.4887 4.65041 15.7929 6.75473 15.6174 9.31204C15.4689 11.4164 13.6012 13.1254 11.3015 13.2613ZM11.162 11.3093C9.65889 11.3958 8.41679 10.2633 8.5158 8.88788C8.59231 7.7513 9.60039 6.83298 10.8425 6.75885C12.3456 6.67237 13.5877 7.80484 13.4887 9.18026C13.4077 10.321 12.3996 11.2393 11.162 11.3093Z" fill="#292929"/>
<path d="M1.92065 1.60757L19.4379 15.9398" stroke="#292929" stroke-width="1.5" stroke-linecap="square"/>
</svg>
