<svg width="800" height="800" viewBox="0 0 800 800" fill="none" xmlns="http://www.w3.org/2000/svg">
<mask id="mask0_203_191" style="mask-type:alpha" maskUnits="userSpaceOnUse" x="100" y="40" width="600" height="700">
<rect x="100" y="40" width="600" height="700" fill="white"/>
</mask>
<g mask="url(#mask0_203_191)">
<path d="M573.052 200.486C466.133 401.572 216.445 477.909 15.3591 370.99C-185.727 264.071 -262.064 14.383 -155.145 -186.703C-48.2255 -387.789 201.462 -464.126 402.548 -357.207C603.634 -250.288 679.972 -0.599897 573.052 200.486Z" fill="url(#paint0_linear_203_191)"/>
<path d="M426.792 261.288C319.872 462.374 70.1847 538.711 -130.901 431.792C-331.988 324.872 -408.325 75.1847 -301.405 -125.901C-194.486 -326.987 55.2018 -403.325 256.288 -296.405C457.374 -189.486 533.711 60.2019 426.792 261.288Z" fill="url(#paint1_linear_203_191)"/>
<path d="M417.792 133.288C310.872 334.374 61.1847 410.711 -139.901 303.792C-340.988 196.872 -417.325 -52.8153 -310.405 -253.901C-203.486 -454.988 46.2018 -531.325 247.288 -424.405C448.374 -317.486 524.711 -67.7982 417.792 133.288Z" fill="url(#paint2_linear_203_191)"/>
</g>
<mask id="path-5-inside-1_203_191" fill="white">
<path fill-rule="evenodd" clip-rule="evenodd" d="M201.5 156.257C235.466 156.257 263 139.186 263 118.128C263 97.0707 235.466 80 201.5 80C167.534 80 140 97.0707 140 118.128C140 125.636 143.5 132.637 149.544 138.538C151.041 140.001 151.667 142.179 150.968 144.152L145.379 159.92C143.949 163.956 147.923 167.806 151.911 166.248L180.952 154.903C181.848 154.553 182.824 154.472 183.769 154.649C189.384 155.695 195.336 156.257 201.5 156.257Z"/>
</mask>
<path d="M180.952 154.903L176.949 144.657L180.952 154.903ZM145.379 159.92L135.011 156.246L145.379 159.92ZM151.911 166.248L147.909 156.002L151.911 166.248ZM252 118.128C252 123.453 248.484 129.979 239.191 135.74C230.065 141.398 216.767 145.257 201.5 145.257L201.5 167.257C220.198 167.257 237.651 162.58 250.783 154.438C263.749 146.4 274 133.862 274 118.128L252 118.128ZM201.5 91C216.767 91 230.065 94.8587 239.191 100.517C248.484 106.278 252 112.804 252 118.128L274 118.128C274 102.395 263.749 89.857 250.783 81.8185C237.651 73.6767 220.198 69 201.5 69L201.5 91ZM151 118.128C151 112.804 154.516 106.278 163.809 100.517C172.935 94.8587 186.233 91 201.5 91L201.5 69C182.802 69 165.349 73.6767 152.217 81.8185C139.251 89.857 129 102.395 129 118.128L151 118.128ZM157.229 130.668C152.759 126.304 151 121.989 151 118.128L129 118.128C129 129.284 134.241 138.971 141.859 146.409L157.229 130.668ZM155.747 163.595L161.336 147.827L140.6 140.477L135.011 156.246L155.747 163.595ZM176.949 144.657L147.909 156.002L155.914 176.494L184.955 165.149L176.949 144.657ZM201.5 145.257C196.001 145.257 190.724 144.755 185.785 143.835L181.754 165.462C188.044 166.634 194.671 167.257 201.5 167.257L201.5 145.257ZM184.955 165.149C183.852 165.579 182.738 165.646 181.754 165.462L185.785 143.835C182.911 143.299 179.843 143.527 176.949 144.657L184.955 165.149ZM135.011 156.246C130.433 169.161 143.15 181.48 155.914 176.494L147.909 156.002C152.695 154.132 157.464 158.752 155.747 163.595L135.011 156.246ZM141.859 146.409C140.655 145.234 139.702 143.01 140.6 140.477L161.336 147.827C163.632 141.349 161.427 134.768 157.229 130.668L141.859 146.409Z" fill="white" mask="url(#path-5-inside-1_203_191)"/>
<path d="M177.376 130.192C175.157 130.192 173.152 129.701 171.36 128.72C169.589 127.739 168.192 126.384 167.168 124.656C166.165 122.907 165.664 120.955 165.664 118.8C165.664 116.645 166.165 114.704 167.168 112.976C168.192 111.227 169.6 109.861 171.392 108.88C173.184 107.899 175.189 107.408 177.408 107.408C179.072 107.408 180.608 107.685 182.016 108.24C183.424 108.795 184.619 109.605 185.6 110.672L184.096 112.176C182.347 110.405 180.139 109.52 177.472 109.52C175.701 109.52 174.091 109.925 172.64 110.736C171.189 111.547 170.048 112.656 169.216 114.064C168.405 115.472 168 117.051 168 118.8C168 120.549 168.405 122.128 169.216 123.536C170.048 124.944 171.189 126.053 172.64 126.864C174.091 127.675 175.701 128.08 177.472 128.08C180.16 128.08 182.368 127.184 184.096 125.392L185.6 126.896C184.619 127.963 183.413 128.784 181.984 129.36C180.576 129.915 179.04 130.192 177.376 130.192ZM197.144 113.04C199.256 113.04 200.931 113.659 202.168 114.896C203.427 116.112 204.056 117.893 204.056 120.24L204.056 130L201.784 130L201.784 120.464C201.784 118.715 201.347 117.381 200.472 116.464C199.597 115.547 198.349 115.088 196.728 115.088C194.915 115.088 193.475 115.632 192.408 116.72C191.363 117.787 190.84 119.269 190.84 121.168L190.84 130L188.568 130L188.568 106.256L190.84 106.256L190.84 116.112C191.459 115.131 192.312 114.373 193.4 113.84C194.488 113.307 195.736 113.04 197.144 113.04ZM214.512 113.04C216.71 113.04 218.395 113.595 219.568 114.704C220.742 115.792 221.328 117.413 221.328 119.568L221.328 130L219.152 130L219.152 127.376C218.64 128.251 217.883 128.933 216.88 129.424C215.899 129.915 214.726 130.16 213.36 130.16C211.483 130.16 209.99 129.712 208.88 128.816C207.771 127.92 207.216 126.736 207.216 125.264C207.216 123.835 207.728 122.683 208.752 121.808C209.798 120.933 211.451 120.496 213.712 120.496L219.056 120.496L219.056 119.472C219.056 118.021 218.651 116.923 217.84 116.176C217.03 115.408 215.846 115.024 214.288 115.024C213.222 115.024 212.198 115.205 211.216 115.568C210.235 115.909 209.392 116.389 208.688 117.008L207.664 115.312C208.518 114.587 209.542 114.032 210.736 113.648C211.931 113.243 213.19 113.04 214.512 113.04ZM213.712 128.368C214.992 128.368 216.091 128.08 217.008 127.504C217.926 126.907 218.608 126.053 219.056 124.944L219.056 122.192L213.776 122.192C210.896 122.192 209.456 123.195 209.456 125.2C209.456 126.181 209.83 126.96 210.576 127.536C211.323 128.091 212.368 128.368 213.712 128.368ZM234.763 128.976C234.337 129.36 233.803 129.659 233.163 129.872C232.545 130.064 231.894 130.16 231.211 130.16C229.633 130.16 228.417 129.733 227.563 128.88C226.71 128.027 226.283 126.821 226.283 125.264L226.283 115.088L223.275 115.088L223.275 113.168L226.283 113.168L226.283 109.488L228.555 109.488L228.555 113.168L233.675 113.168L233.675 115.088L228.555 115.088L228.555 125.136C228.555 126.139 228.801 126.907 229.291 127.44C229.803 127.952 230.529 128.208 231.467 128.208C231.937 128.208 232.385 128.133 232.811 127.984C233.259 127.835 233.643 127.621 233.963 127.344L234.763 128.976Z" fill="white"/>
<path d="M276.344 116.464C276.877 115.333 277.667 114.48 278.712 113.904C279.779 113.328 281.091 113.04 282.648 113.04L282.648 115.248L282.104 115.216C280.333 115.216 278.947 115.76 277.944 116.848C276.941 117.936 276.44 119.461 276.44 121.424L276.44 130L274.168 130L274.168 113.168L276.344 113.168L276.344 116.464ZM291.885 130.16C290.264 130.16 288.803 129.797 287.501 129.072C286.2 128.325 285.176 127.301 284.429 126C283.683 124.699 283.309 123.227 283.309 121.584C283.309 119.941 283.683 118.469 284.429 117.168C285.176 115.867 286.2 114.853 287.501 114.128C288.803 113.403 290.264 113.04 291.885 113.04C293.507 113.04 294.968 113.403 296.27 114.128C297.571 114.853 298.584 115.867 299.309 117.168C300.056 118.469 300.43 119.941 300.43 121.584C300.43 123.227 300.056 124.699 299.309 126C298.584 127.301 297.571 128.325 296.27 129.072C294.968 129.797 293.507 130.16 291.885 130.16ZM291.885 128.144C293.08 128.144 294.147 127.877 295.086 127.344C296.046 126.789 296.792 126.011 297.326 125.008C297.859 124.005 298.125 122.864 298.125 121.584C298.125 120.304 297.859 119.163 297.326 118.16C296.792 117.157 296.046 116.389 295.086 115.856C294.147 115.301 293.08 115.024 291.885 115.024C290.691 115.024 289.614 115.301 288.654 115.856C287.715 116.389 286.968 117.157 286.413 118.16C285.88 119.163 285.613 120.304 285.613 121.584C285.613 122.864 285.88 124.005 286.413 125.008C286.968 126.011 287.715 126.789 288.654 127.344C289.614 127.877 290.691 128.144 291.885 128.144ZM310.348 130.16C308.727 130.16 307.265 129.797 305.964 129.072C304.663 128.325 303.639 127.301 302.892 126C302.145 124.699 301.772 123.227 301.772 121.584C301.772 119.941 302.145 118.469 302.892 117.168C303.639 115.867 304.663 114.853 305.964 114.128C307.265 113.403 308.727 113.04 310.348 113.04C311.969 113.04 313.431 113.403 314.732 114.128C316.033 114.853 317.047 115.867 317.772 117.168C318.519 118.469 318.892 119.941 318.892 121.584C318.892 123.227 318.519 124.699 317.772 126C317.047 127.301 316.033 128.325 314.732 129.072C313.431 129.797 311.969 130.16 310.348 130.16ZM310.348 128.144C311.543 128.144 312.609 127.877 313.548 127.344C314.508 126.789 315.255 126.011 315.788 125.008C316.321 124.005 316.588 122.864 316.588 121.584C316.588 120.304 316.321 119.163 315.788 118.16C315.255 117.157 314.508 116.389 313.548 115.856C312.609 115.301 311.543 115.024 310.348 115.024C309.153 115.024 308.076 115.301 307.116 115.856C306.177 116.389 305.431 117.157 304.876 118.16C304.343 119.163 304.076 120.304 304.076 121.584C304.076 122.864 304.343 124.005 304.876 125.008C305.431 126.011 306.177 126.789 307.116 127.344C308.076 127.877 309.153 128.144 310.348 128.144ZM342.923 113.04C345.035 113.04 346.688 113.648 347.883 114.864C349.099 116.08 349.707 117.872 349.707 120.24L349.707 130L347.435 130L347.435 120.464C347.435 118.715 347.008 117.381 346.155 116.464C345.323 115.547 344.139 115.088 342.603 115.088C340.853 115.088 339.477 115.632 338.475 116.72C337.472 117.787 336.971 119.269 336.971 121.168L336.971 130L334.699 130L334.699 120.464C334.699 118.715 334.272 117.381 333.419 116.464C332.587 115.547 331.392 115.088 329.835 115.088C328.107 115.088 326.731 115.632 325.707 116.72C324.704 117.787 324.203 119.269 324.203 121.168L324.203 130L321.931 130L321.931 113.168L324.107 113.168L324.107 116.24C324.704 115.216 325.536 114.427 326.603 113.872C327.669 113.317 328.896 113.04 330.283 113.04C331.691 113.04 332.907 113.339 333.931 113.936C334.976 114.533 335.755 115.419 336.267 116.592C336.885 115.483 337.771 114.619 338.923 114C340.096 113.36 341.429 113.04 342.923 113.04ZM358.78 130.16C357.415 130.16 356.103 129.968 354.844 129.584C353.607 129.179 352.636 128.677 351.932 128.08L352.956 126.288C353.66 126.843 354.545 127.301 355.612 127.664C356.679 128.005 357.788 128.176 358.94 128.176C360.476 128.176 361.607 127.941 362.332 127.472C363.079 126.981 363.452 126.299 363.452 125.424C363.452 124.805 363.249 124.325 362.844 123.984C362.439 123.621 361.927 123.355 361.308 123.184C360.689 122.992 359.868 122.811 358.844 122.64C357.479 122.384 356.38 122.128 355.548 121.872C354.716 121.595 354.001 121.136 353.404 120.496C352.828 119.856 352.54 118.971 352.54 117.84C352.54 116.432 353.127 115.28 354.3 114.384C355.473 113.488 357.105 113.04 359.196 113.04C360.284 113.04 361.372 113.189 362.46 113.488C363.548 113.765 364.444 114.139 365.148 114.608L364.156 116.432C362.769 115.472 361.116 114.992 359.196 114.992C357.745 114.992 356.647 115.248 355.9 115.76C355.175 116.272 354.812 116.944 354.812 117.776C354.812 118.416 355.015 118.928 355.42 119.312C355.847 119.696 356.369 119.984 356.988 120.176C357.607 120.347 358.46 120.528 359.548 120.72C360.892 120.976 361.969 121.232 362.78 121.488C363.591 121.744 364.284 122.181 364.86 122.8C365.436 123.419 365.724 124.272 365.724 125.36C365.724 126.832 365.105 128.005 363.868 128.88C362.652 129.733 360.956 130.16 358.78 130.16Z" fill="white"/>
<defs>
<linearGradient id="paint0_linear_203_191" x1="960.15" y1="-273.013" x2="-815.852" y2="100.185" gradientUnits="userSpaceOnUse">
<stop stop-color="#C72FF8"/>
<stop offset="1" stop-color="#C630F8" stop-opacity="0.24"/>
</linearGradient>
<linearGradient id="paint1_linear_203_191" x1="-126.258" y1="-527.671" x2="189.748" y2="707.102" gradientUnits="userSpaceOnUse">
<stop stop-color="#C630F8" stop-opacity="0.24"/>
<stop offset="0.99907" stop-color="#2F56F8"/>
</linearGradient>
<linearGradient id="paint2_linear_203_191" x1="-122.805" y1="-671.606" x2="141.584" y2="343.336" gradientUnits="userSpaceOnUse">
<stop stop-color="#5264F9"/>
<stop offset="1" stop-color="#3AF9EF"/>
</linearGradient>
</defs>
</svg>
