<svg width="800" height="800" viewBox="0 0 800 800" fill="none" xmlns="http://www.w3.org/2000/svg">
<mask id="mask0_203_191" style="mask-type:alpha" maskUnits="userSpaceOnUse" x="0" y="0" width="600" height="700">
<rect x="9.15527e-05" y="-3.05176e-05" width="600" height="700" fill="white"/>
</mask>
<g mask="url(#mask0_203_191)">
<path d="M473.052 160.486C366.133 361.572 116.445 437.91 -84.6409 330.99C-285.727 224.071 -362.064 -25.617 -255.145 -226.703C-148.225 -427.789 101.462 -504.126 302.548 -397.207C503.635 -290.288 579.972 -40.5999 473.052 160.486Z" fill="url(#paint0_linear_203_191)"/>
<path d="M326.792 221.288C219.872 422.374 -29.8153 498.711 -230.901 391.792C-431.988 284.872 -508.325 35.1847 -401.405 -165.901C-294.486 -366.987 -44.7982 -443.325 156.288 -336.405C357.374 -229.486 433.711 20.2019 326.792 221.288Z" fill="url(#paint1_linear_203_191)"/>
<path d="M317.792 93.2879C210.872 294.374 -38.8153 370.711 -239.901 263.792C-440.988 156.872 -517.325 -92.8153 -410.405 -293.901C-303.486 -494.988 -53.7982 -571.325 147.288 -464.405C348.374 -357.486 424.711 -107.798 317.792 93.2879Z" fill="url(#paint2_linear_203_191)"/>
</g>
<mask id="path-5-inside-1_203_191" fill="white">
<path fill-rule="evenodd" clip-rule="evenodd" d="M101.5 116.257C135.466 116.257 163 99.1863 163 78.1285C163 57.0707 135.466 40 101.5 40C67.5345 40 40 57.0707 40 78.1285C40 85.6363 43.5001 92.6372 49.5437 98.5384C51.0413 100.001 51.6669 102.179 50.9677 104.152L45.3791 119.92C43.9486 123.956 47.9226 127.806 51.9112 126.248L80.952 114.903C81.8476 114.553 82.8242 114.472 83.7695 114.649C89.3837 115.695 95.336 116.257 101.5 116.257Z"/>
</mask>
<path d="M80.952 114.903L76.9494 104.657L80.952 114.903ZM45.3791 119.92L35.011 116.246L45.3791 119.92ZM51.9112 126.248L47.9086 116.002L51.9112 126.248ZM152 78.1285C152 83.4529 148.484 89.979 139.191 95.7404C130.065 101.398 116.767 105.257 101.5 105.257L101.5 127.257C120.198 127.257 137.651 122.58 150.783 114.438C163.749 106.4 174 93.8619 174 78.1285L152 78.1285ZM101.5 51C116.767 51 130.065 54.8587 139.191 60.5166C148.484 66.2779 152 72.8041 152 78.1285L174 78.1285C174 62.3951 163.749 49.857 150.783 41.8185C137.651 33.6767 120.198 29 101.5 29L101.5 51ZM51 78.1285C51 72.8041 54.5163 66.2779 63.8091 60.5166C72.9352 54.8587 86.2327 51 101.5 51L101.5 29C82.8018 29 65.3493 33.6767 52.2168 41.8185C39.251 49.857 29 62.3951 29 78.1285L51 78.1285ZM57.2286 90.668C52.7591 86.3039 51 81.9888 51 78.1285L29 78.1285C29 89.2837 34.241 98.9706 41.8589 106.409L57.2286 90.668ZM55.7471 123.595L61.3358 107.827L40.5997 100.477L35.011 116.246L55.7471 123.595ZM76.9494 104.657L47.9086 116.002L55.9138 136.494L84.9546 125.149L76.9494 104.657ZM101.5 105.257C96.0014 105.257 90.724 104.755 85.7846 103.835L81.7543 125.462C88.0435 126.634 94.6706 127.257 101.5 127.257L101.5 105.257ZM84.9546 125.149C83.8522 125.579 82.7376 125.646 81.7543 125.462L85.7846 103.835C82.9108 103.299 79.8429 103.527 76.9494 104.657L84.9546 125.149ZM35.011 116.246C30.4334 129.161 43.1503 141.48 55.9138 136.494L47.9086 116.002C52.6949 114.132 57.4637 118.752 55.7471 123.595L35.011 116.246ZM41.8589 106.409C40.6553 105.234 39.7021 103.01 40.5997 100.477L61.3358 107.827C63.6317 101.349 61.4272 94.7677 57.2286 90.668L41.8589 106.409Z" fill="white" mask="url(#path-5-inside-1_203_191)"/>
<path d="M77.376 90.192C75.1573 90.192 73.152 89.7013 71.36 88.72C69.5893 87.7387 68.192 86.384 67.168 84.656C66.1653 82.9067 65.664 80.9547 65.664 78.8C65.664 76.6453 66.1653 74.704 67.168 72.976C68.192 71.2267 69.6 69.8613 71.392 68.88C73.184 67.8987 75.1893 67.408 77.408 67.408C79.072 67.408 80.608 67.6853 82.016 68.24C83.424 68.7947 84.6187 69.6053 85.6 70.672L84.096 72.176C82.3467 70.4053 80.1387 69.52 77.472 69.52C75.7013 69.52 74.0907 69.9253 72.64 70.736C71.1893 71.5467 70.048 72.656 69.216 74.064C68.4053 75.472 68 77.0507 68 78.8C68 80.5493 68.4053 82.128 69.216 83.536C70.048 84.944 71.1893 86.0533 72.64 86.864C74.0907 87.6747 75.7013 88.08 77.472 88.08C80.16 88.08 82.368 87.184 84.096 85.392L85.6 86.896C84.6187 87.9627 83.4133 88.784 81.984 89.36C80.576 89.9147 79.04 90.192 77.376 90.192ZM97.144 73.04C99.256 73.04 100.931 73.6587 102.168 74.896C103.427 76.112 104.056 77.8933 104.056 80.24L104.056 90L101.784 90L101.784 80.464C101.784 78.7147 101.347 77.3813 100.472 76.464C99.5973 75.5467 98.3493 75.088 96.728 75.088C94.9147 75.088 93.4747 75.632 92.408 76.72C91.3627 77.7867 90.84 79.2693 90.84 81.168L90.84 90L88.568 90L88.568 66.256L90.84 66.256L90.84 76.112C91.4587 75.1307 92.312 74.3733 93.4 73.84C94.488 73.3067 95.736 73.04 97.144 73.04ZM114.512 73.04C116.71 73.04 118.395 73.5947 119.568 74.704C120.742 75.792 121.328 77.4133 121.328 79.568L121.328 90L119.152 90L119.152 87.376C118.64 88.2507 117.883 88.9333 116.88 89.424C115.899 89.9147 114.726 90.16 113.36 90.16C111.483 90.16 109.99 89.712 108.88 88.816C107.771 87.92 107.216 86.736 107.216 85.264C107.216 83.8347 107.728 82.6827 108.752 81.808C109.798 80.9333 111.451 80.496 113.712 80.496L119.056 80.496L119.056 79.472C119.056 78.0213 118.651 76.9227 117.84 76.176C117.03 75.408 115.846 75.024 114.288 75.024C113.222 75.024 112.198 75.2053 111.216 75.568C110.235 75.9093 109.392 76.3893 108.688 77.008L107.664 75.312C108.518 74.5867 109.542 74.032 110.736 73.648C111.931 73.2427 113.19 73.04 114.512 73.04ZM113.712 88.368C114.992 88.368 116.091 88.08 117.008 87.504C117.926 86.9067 118.608 86.0533 119.056 84.944L119.056 82.192L113.776 82.192C110.896 82.192 109.456 83.1947 109.456 85.2C109.456 86.1813 109.83 86.96 110.576 87.536C111.323 88.0907 112.368 88.368 113.712 88.368ZM134.763 88.976C134.337 89.36 133.803 89.6587 133.163 89.872C132.545 90.064 131.894 90.16 131.211 90.16C129.633 90.16 128.417 89.7333 127.563 88.88C126.71 88.0267 126.283 86.8213 126.283 85.264L126.283 75.088L123.275 75.088L123.275 73.168L126.283 73.168L126.283 69.488L128.555 69.488L128.555 73.168L133.675 73.168L133.675 75.088L128.555 75.088L128.555 85.136C128.555 86.1387 128.801 86.9067 129.291 87.44C129.803 87.952 130.529 88.208 131.467 88.208C131.937 88.208 132.385 88.1333 132.811 87.984C133.259 87.8347 133.643 87.6213 133.963 87.344L134.763 88.976Z" fill="white"/>
<path d="M176.344 76.464C176.877 75.3333 177.667 74.48 178.712 73.904C179.779 73.328 181.091 73.04 182.648 73.04L182.648 75.248L182.104 75.216C180.333 75.216 178.947 75.76 177.944 76.848C176.941 77.936 176.44 79.4613 176.44 81.424L176.44 90L174.168 90L174.168 73.168L176.344 73.168L176.344 76.464ZM191.885 90.16C190.264 90.16 188.803 89.7973 187.501 89.072C186.2 88.3253 185.176 87.3013 184.429 86C183.683 84.6987 183.309 83.2267 183.309 81.584C183.309 79.9413 183.683 78.4693 184.429 77.168C185.176 75.8667 186.2 74.8533 187.501 74.128C188.803 73.4027 190.264 73.04 191.885 73.04C193.507 73.04 194.968 73.4027 196.27 74.128C197.571 74.8533 198.584 75.8667 199.309 77.168C200.056 78.4693 200.43 79.9413 200.43 81.584C200.43 83.2267 200.056 84.6987 199.309 86C198.584 87.3013 197.571 88.3253 196.27 89.072C194.968 89.7973 193.507 90.16 191.885 90.16ZM191.885 88.144C193.08 88.144 194.147 87.8773 195.086 87.344C196.046 86.7893 196.792 86.0107 197.326 85.008C197.859 84.0053 198.125 82.864 198.125 81.584C198.125 80.304 197.859 79.1627 197.326 78.16C196.792 77.1573 196.046 76.3893 195.086 75.856C194.147 75.3013 193.08 75.024 191.885 75.024C190.691 75.024 189.614 75.3013 188.654 75.856C187.715 76.3893 186.968 77.1573 186.413 78.16C185.88 79.1627 185.613 80.304 185.613 81.584C185.613 82.864 185.88 84.0053 186.413 85.008C186.968 86.0107 187.715 86.7893 188.654 87.344C189.614 87.8773 190.691 88.144 191.885 88.144ZM210.348 90.16C208.727 90.16 207.265 89.7973 205.964 89.072C204.663 88.3253 203.639 87.3013 202.892 86C202.145 84.6987 201.772 83.2267 201.772 81.584C201.772 79.9413 202.145 78.4693 202.892 77.168C203.639 75.8667 204.663 74.8533 205.964 74.128C207.265 73.4027 208.727 73.04 210.348 73.04C211.969 73.04 213.431 73.4027 214.732 74.128C216.033 74.8533 217.047 75.8667 217.772 77.168C218.519 78.4693 218.892 79.9413 218.892 81.584C218.892 83.2267 218.519 84.6987 217.772 86C217.047 87.3013 216.033 88.3253 214.732 89.072C213.431 89.7973 211.969 90.16 210.348 90.16ZM210.348 88.144C211.543 88.144 212.609 87.8773 213.548 87.344C214.508 86.7893 215.255 86.0107 215.788 85.008C216.321 84.0053 216.588 82.864 216.588 81.584C216.588 80.304 216.321 79.1627 215.788 78.16C215.255 77.1573 214.508 76.3893 213.548 75.856C212.609 75.3013 211.543 75.024 210.348 75.024C209.153 75.024 208.076 75.3013 207.116 75.856C206.177 76.3893 205.431 77.1573 204.876 78.16C204.343 79.1627 204.076 80.304 204.076 81.584C204.076 82.864 204.343 84.0053 204.876 85.008C205.431 86.0107 206.177 86.7893 207.116 87.344C208.076 87.8773 209.153 88.144 210.348 88.144ZM242.923 73.04C245.035 73.04 246.688 73.648 247.883 74.864C249.099 76.08 249.707 77.872 249.707 80.24L249.707 90L247.435 90L247.435 80.464C247.435 78.7147 247.008 77.3813 246.155 76.464C245.323 75.5467 244.139 75.088 242.603 75.088C240.853 75.088 239.477 75.632 238.475 76.72C237.472 77.7867 236.971 79.2693 236.971 81.168L236.971 90L234.699 90L234.699 80.464C234.699 78.7147 234.272 77.3813 233.419 76.464C232.587 75.5467 231.392 75.088 229.835 75.088C228.107 75.088 226.731 75.632 225.707 76.72C224.704 77.7867 224.203 79.2693 224.203 81.168L224.203 90L221.931 90L221.931 73.168L224.107 73.168L224.107 76.24C224.704 75.216 225.536 74.4267 226.603 73.872C227.669 73.3173 228.896 73.04 230.283 73.04C231.691 73.04 232.907 73.3387 233.931 73.936C234.976 74.5333 235.755 75.4187 236.267 76.592C236.885 75.4827 237.771 74.6187 238.923 74C240.096 73.36 241.429 73.04 242.923 73.04ZM258.78 90.16C257.415 90.16 256.103 89.968 254.844 89.584C253.607 89.1787 252.636 88.6773 251.932 88.08L252.956 86.288C253.66 86.8427 254.545 87.3013 255.612 87.664C256.679 88.0053 257.788 88.176 258.94 88.176C260.476 88.176 261.607 87.9413 262.332 87.472C263.079 86.9813 263.452 86.2987 263.452 85.424C263.452 84.8053 263.249 84.3253 262.844 83.984C262.439 83.6213 261.927 83.3547 261.308 83.184C260.689 82.992 259.868 82.8107 258.844 82.64C257.479 82.384 256.38 82.128 255.548 81.872C254.716 81.5947 254.001 81.136 253.404 80.496C252.828 79.856 252.54 78.9707 252.54 77.84C252.54 76.432 253.127 75.28 254.3 74.384C255.473 73.488 257.105 73.04 259.196 73.04C260.284 73.04 261.372 73.1893 262.46 73.488C263.548 73.7653 264.444 74.1387 265.148 74.608L264.156 76.432C262.769 75.472 261.116 74.992 259.196 74.992C257.745 74.992 256.647 75.248 255.9 75.76C255.175 76.272 254.812 76.944 254.812 77.776C254.812 78.416 255.015 78.928 255.42 79.312C255.847 79.696 256.369 79.984 256.988 80.176C257.607 80.3467 258.46 80.528 259.548 80.72C260.892 80.976 261.969 81.232 262.78 81.488C263.591 81.744 264.284 82.1813 264.86 82.8C265.436 83.4187 265.724 84.272 265.724 85.36C265.724 86.832 265.105 88.0053 263.868 88.88C262.652 89.7333 260.956 90.16 258.78 90.16Z" fill="white"/>
<defs>
<linearGradient id="paint0_linear_203_191" x1="860.15" y1="-313.013" x2="-915.852" y2="60.1851" gradientUnits="userSpaceOnUse">
<stop stop-color="#C72FF8"/>
<stop offset="1" stop-color="#C630F8" stop-opacity="0.24"/>
</linearGradient>
<linearGradient id="paint1_linear_203_191" x1="-226.258" y1="-567.671" x2="89.7483" y2="667.102" gradientUnits="userSpaceOnUse">
<stop stop-color="#C630F8" stop-opacity="0.24"/>
<stop offset="0.99907" stop-color="#2F56F8"/>
</linearGradient>
<linearGradient id="paint2_linear_203_191" x1="-222.805" y1="-711.606" x2="41.5839" y2="303.336" gradientUnits="userSpaceOnUse">
<stop stop-color="#5264F9"/>
<stop offset="1" stop-color="#3AF9EF"/>
</linearGradient>
</defs>
</svg>
