<svg width="19" height="15" viewBox="0 0 19 15" fill="none" xmlns="http://www.w3.org/2000/svg">
<g clip-path="url(#clip0_204_216)">
<path d="M18.625 7.68552C18.625 7.58108 18.5859 7.49563 18.5078 7.41967L11.9062 0.963511C11.7598 0.802107 11.6523 0.76413 11.5449 0.76413C11.3301 0.76413 11.1641 0.925533 11.1641 1.12491C11.1641 1.22935 11.1934 1.3243 11.2715 1.39076L15.168 5.1885L17.502 7.3817L15.3633 7.32473H0.861328C0.65625 7.32473 0.490234 7.47664 0.490234 7.68552C0.490234 7.89439 0.65625 8.0463 0.861328 8.0463H15.3633L17.502 7.99883L15.168 10.1825L11.2715 13.9803C11.2031 14.0467 11.1641 14.1512 11.1641 14.2556C11.1641 14.4455 11.3301 14.6069 11.5449 14.6069C11.6523 14.6069 11.7402 14.569 11.8184 14.4929L18.5078 7.95136C18.5859 7.8754 18.625 7.78996 18.625 7.68552Z" fill="#FFFFFF"/>
</g>
<defs>
<clipPath id="clip0_204_216">
<rect width="19" height="14.5833" fill="white" transform="translate(0 0.194458)"/>
</clipPath>
</defs>
</svg>
